HIERARCHY
ROOT root
{
	OFFSET 0.000000 0.000000 0.000000
	CHANNELS 6 Xposition Yposition Zposition Zrotation Yrotation Xrotation
	JOINT lhip
	{
		OFFSET 0.058581 -0.082280 -0.017664
		CHANNELS 3 Zrotation Yrotation Xrotation
		JOINT lknee
		{
			OFFSET 0.043451 -0.386469 0.008037
			CHANNELS 3 Zrotation Yrotation Xrotation
			JOINT lankle
			{
				OFFSET -0.014790 -0.426874 -0.037428
				CHANNELS 3 Zrotation Yrotation Xrotation
				JOINT ltoe
				{
					OFFSET 0.041054 -0.060286 0.122042
					CHANNELS 3 Zrotation Yrotation Xrotation
					End Site
					{
						OFFSET 0.000000 0.000000 0.000000
					}
				}
			}
		}
	}
	JOINT rhip
	{
		OFFSET -0.060310 -0.090513 -0.013543
		CHANNELS 3 Zrotation Yrotation Xrotation
		JOINT rknee
		{
			OFFSET -0.043257 -0.383688 -0.004843
			CHANNELS 3 Zrotation Yrotation Xrotation
			JOINT rankle
			{
				OFFSET 0.019056 -0.420046 -0.034562
				CHANNELS 3 Zrotation Yrotation Xrotation
				JOINT rtoe
				{
					OFFSET -0.034840 -0.062106 0.130323
					CHANNELS 3 Zrotation Yrotation Xrotation
					End Site
					{
						OFFSET 0.000000 0.000000 0.000000
					}
				}
			}
		}
	}
	JOINT lowerback
	{
		OFFSET 0.004439 0.124404 -0.038385
		CHANNELS 3 Zrotation Yrotation Xrotation
		JOINT upperback
		{
			OFFSET 0.004488 0.137956 0.026820
			CHANNELS 3 Zrotation Yrotation Xrotation
			JOINT chest
			{
				OFFSET -0.002265 0.056032 0.002855
				CHANNELS 3 Zrotation Yrotation Xrotation
				JOINT lowerneck
				{
					OFFSET -0.013390 0.211636 -0.033468
					CHANNELS 3 Zrotation Yrotation Xrotation
					JOINT upperneck
					{
						OFFSET 0.010113 0.088937 0.050410
						CHANNELS 3 Zrotation Yrotation Xrotation
						End Site
						{
							OFFSET 0.000000 0.000000 0.000000
						}
					}
				}
				JOINT lclavicle
				{
					OFFSET 0.071702 0.114000 -0.018898
					CHANNELS 3 Zrotation Yrotation Xrotation
					JOINT lshoulder
					{
						OFFSET 0.122921 0.045205 -0.019046
						CHANNELS 3 Zrotation Yrotation Xrotation
						JOINT lelbow
						{
							OFFSET 0.255332 -0.015649 -0.022946
							CHANNELS 3 Zrotation Yrotation Xrotation
							JOINT lwrist
							{
								OFFSET 0.265709 0.012698 -0.007375
								CHANNELS 3 Zrotation Yrotation Xrotation
								End Site
								{
									OFFSET 0.000000 0.000000 0.000000
								}
							}
						}
					}
				}
				JOINT rclavicle
				{
					OFFSET -0.082954 0.112472 -0.023707
					CHANNELS 3 Zrotation Yrotation Xrotation
					JOINT rshoulder
					{
						OFFSET -0.113228 0.046853 -0.008472
						CHANNELS 3 Zrotation Yrotation Xrotation
						JOINT relbow
						{
							OFFSET -0.260127 -0.014369 -0.031269
							CHANNELS 3 Zrotation Yrotation Xrotation
							JOINT rwrist
							{
								OFFSET -0.269108 0.006794 -0.006027
								CHANNELS 3 Zrotation Yrotation Xrotation
								End Site
								{
									OFFSET 0.000000 0.000000 0.000000
								}
							}
						}
					}
				}
			}
		}
	}
}
MOTION
Frames: 13
Frame Time: 0.033333
0.824997 0.867835 1.051395 85.080570 -2.648712 94.013244 0.783657 -2.167060 -27.374641 -7.485874 -2.085893 34.024149 3.636822 6.829929 -7.660424 0.000000 -0.000000 0.000000 -7.354511 -2.981774 -26.609585 4.629813 0.574086 31.947303 7.322798 -5.663246 -6.500547 0.000000 -0.000000 0.000000 1.270837 2.345827 21.519284 1.421935 -0.975959 1.006720 -2.053284 -0.992150 0.074828 0.813123 4.515430 -11.104281 1.180095 -3.445069 -8.185757 -32.226372 3.383218 5.472866 -38.672340 5.092808 4.634118 1.928980 -15.604686 21.714608 -35.237009 -13.381202 5.286809 30.642819 -3.159331 7.062307 49.144999 -9.304976 1.602452 -21.210432 13.047923 -13.254157 26.679701 0.889566 -5.182848 
0.797009 0.876083 1.023896 83.669143 -2.904685 98.691375 2.757982 -3.514171 -41.511149 -8.051913 0.592872 46.177885 4.524330 3.731300 -8.954453 0.000000 -0.000000 0.000000 -8.964201 -3.634887 -41.844696 5.939124 -0.371662 46.393477 8.256138 -1.043203 -8.145626 0.000000 -0.000000 0.000000 1.406887 1.466499 24.085779 0.568873 -0.511127 2.004594 -2.198587 -1.011021 0.331753 -0.313005 4.261706 -11.704108 2.408122 -1.328070 -14.414454 -31.270605 8.141811 5.528347 -39.360357 17.906914 0.555381 1.805450 -16.518402 15.450213 -41.693764 -3.692515 13.610077 27.545820 -7.034372 9.768780 51.945408 -19.281462 -6.163660 -21.413180 11.519051 -18.167766 30.388020 -3.258229 -0.756315 
0.772311 0.882873 0.983194 82.903707 -2.640772 101.467700 5.554777 -3.967546 -52.699740 -10.680126 1.306039 56.474279 6.081226 3.562057 -10.783340 0.000000 -0.000000 0.000000 -10.144817 -3.427839 -53.834190 7.034201 -1.702707 59.500959 5.925770 -2.566633 -12.467249 0.000000 -0.000000 0.000000 1.633324 0.439076 26.785548 0.467871 0.265633 1.392411 -2.633718 -1.287066 1.345956 -0.844472 3.694246 -9.832773 3.106237 -0.278978 -19.423508 -28.125522 14.578302 8.344819 -41.645385 28.298249 -2.736359 0.675309 -17.026590 18.441986 -42.229406 -2.176675 11.856108 22.517483 -11.992275 13.868677 55.566373 -29.355154 -12.096792 -19.793499 12.023453 -16.233109 30.683892 -2.074134 -2.804447 
0.752752 0.889639 0.933988 82.629139 -2.456937 101.295309 7.221267 -3.980099 -59.406074 -12.601492 2.278223 65.329912 7.432775 4.955307 -13.731437 0.000000 -0.000000 0.000000 -11.017977 -3.072620 -60.935624 5.636494 -3.360313 71.406646 3.379295 -7.409829 -16.548766 0.000000 -0.000000 0.000000 1.895057 -0.474636 30.037979 0.096878 0.911837 0.270007 -2.932942 -1.718396 3.602300 -0.884641 3.168201 -8.255385 3.963115 0.453761 -22.797323 -23.235177 20.035733 11.113340 -44.344545 37.567177 -8.460251 0.146235 -16.529220 23.618456 -44.733498 -0.547031 11.613937 16.214622 -16.373354 17.863741 59.639324 -37.765277 -19.737013 -18.676026 11.366411 -12.610364 31.643173 -0.999028 -3.663050 
0.737957 0.894993 0.881607 82.427169 -2.394187 100.406801 7.709359 -3.747963 -63.768838 -13.007694 3.743652 72.080028 9.660969 7.383617 -17.948873 0.000000 -0.000000 0.000000 -11.395784 -2.275574 -64.435883 5.645229 -3.208789 78.812103 2.018140 -9.817821 -18.505131 0.000000 -0.000000 0.000000 1.914516 -0.848628 32.196806 -0.074340 1.038278 0.229932 -3.136736 -2.096125 4.835015 -0.680552 2.794109 -6.981961 4.753007 1.055951 -26.310394 -19.231193 23.617201 14.147882 -46.878138 44.235810 -15.003815 0.565943 -16.423903 27.564217 -47.306633 0.294940 12.290433 11.201127 -19.405433 21.519407 63.346870 -42.777118 -28.293850 -19.891304 9.575651 -12.496548 30.933232 -0.545705 -7.417667 
0.727316 0.897432 0.830562 82.801839 -2.365726 99.791509 7.636105 -3.670566 -67.525488 -12.310524 4.862928 77.516923 11.389287 8.661527 -21.343534 0.000000 -0.000000 0.000000 -11.428362 -1.900966 -65.540900 6.458956 -2.879252 81.011077 0.426860 -12.250860 -22.654982 0.000000 -0.000000 0.000000 1.962356 -0.817788 34.393614 0.185559 0.430726 0.156577 -2.832437 -2.789940 4.633815 -1.055349 2.417666 -7.976142 5.020593 1.373744 -29.269945 -19.420552 23.694557 16.207222 -50.050301 46.832539 -19.075459 0.487636 -16.520817 28.906396 -48.208986 -1.059244 12.239310 11.756891 -19.551566 23.023785 65.715705 -44.324998 -32.979463 -20.497643 8.613768 -15.040807 29.255267 1.506146 -10.223484 
0.721190 0.898491 0.786559 82.874974 -2.493624 99.307531 8.283094 -3.421169 -70.599590 -11.328166 6.529936 81.821196 12.075924 7.915590 -23.416880 0.000000 -0.000000 0.000000 -12.006514 -2.114829 -66.291685 5.186251 -3.646984 83.158944 -1.456911 -11.523072 -26.728246 0.000000 -0.000000 0.000000 1.621262 -0.691237 37.726369 0.418917 -0.455320 -0.921673 -2.313839 -3.022418 2.559690 -1.751085 2.315164 -9.865294 5.428848 0.977441 -30.454780 -22.489060 20.034015 17.017112 -54.539208 44.330466 -19.216661 1.241479 -17.576326 27.150910 -47.163829 -2.790355 11.098885 15.196931 -16.278720 22.558823 69.736533 -40.973612 -32.194296 -21.563660 9.037751 -16.188725 30.462103 1.515280 -11.389135 
0.719161 0.899514 0.755254 82.273199 -2.766757 98.115964 8.572798 -2.997652 -70.974357 -9.671346 7.746977 84.071370 12.526078 6.566698 -25.435429 0.000000 -0.000000 0.000000 -13.036580 -2.682057 -67.327317 3.612780 -4.732091 86.254663 -2.263236 -8.579602 -28.146894 0.000000 -0.000000 0.000000 1.021868 -0.773725 40.864559 0.254989 -1.132656 -2.116737 -1.875366 -2.722431 0.191002 -2.714489 2.523213 -11.618835 5.561693 1.123481 -29.981613 -27.363887 12.668605 16.388133 -56.884323 36.337057 -14.636735 3.138827 -17.892137 20.432854 -40.346144 -5.546415 8.642250 19.891311 -9.386724 19.863389 72.516045 -32.535947 -26.449048 -22.790824 8.419917 -23.098220 26.456573 2.710594 -15.078573 
0.720219 0.900679 0.740347 81.637729 -2.809251 95.916863 8.195719 -3.215528 -68.675601 -8.324774 7.848972 84.703879 12.659147 5.789567 -26.599067 0.000000 -0.000000 0.000000 -13.980668 -3.034114 -65.898299 3.227913 -5.585488 87.437593 -2.299550 -5.951672 -28.784111 0.000000 -0.000000 0.000000 0.638358 -0.944755 41.902064 0.385476 -1.966981 -2.315983 -1.938030 -2.451582 -1.376119 -2.706554 2.550525 -13.988680 4.975792 1.259686 -26.887291 -35.084163 2.512633 14.205764 -51.773532 24.658169 -4.109474 4.226008 -16.295955 13.265604 -30.890841 -7.411576 9.452136 28.219353 0.194196 14.992831 66.868960 -21.988238 -15.028370 -22.746025 7.520003 -30.974858 22.687365 4.825669 -16.387816 
0.719065 0.902062 0.741239 80.609982 -2.758546 91.851592 7.453130 -3.807628 -63.989505 -7.636111 7.553083 84.693409 12.480240 5.663569 -26.576319 0.000000 -0.000000 0.000000 -14.267557 -2.453567 -60.769281 3.771111 -5.571436 85.718929 -1.849158 -4.308477 -29.223478 0.000000 -0.000000 0.000000 -0.274104 -0.321034 40.656546 1.244131 -3.289741 -1.786439 -1.889782 -2.566026 -1.689493 -2.140217 3.700278 -14.552825 3.892286 0.457156 -23.120277 -40.966518 -9.250552 11.406371 -43.105315 10.838016 5.535402 5.063879 -15.631893 3.402899 -21.748596 -9.994047 8.939480 36.158671 10.513709 10.387038 55.310493 -8.166033 -2.623211 -23.076638 8.401760 -36.871272 22.584359 5.336498 -15.574103 
0.708428 0.907103 0.752395 79.287919 -2.241345 85.309719 5.897680 -3.850259 -56.796107 -7.743856 5.743517 84.068875 11.809552 6.119342 -25.495764 0.000000 -0.000000 0.000000 -12.802095 -1.564385 -53.694770 4.699932 -4.184249 83.302733 -1.315847 -3.972910 -27.612981 0.000000 -0.000000 0.000000 -0.763943 -0.381179 39.933431 1.481824 -3.991366 -2.743506 -1.761576 -2.701550 -0.506291 -1.265469 5.072408 -17.070307 3.023011 0.032731 -18.497366 -41.441384 -19.684015 9.513995 -34.143578 -6.091898 9.552122 7.319742 -20.907273 -1.213043 -5.796215 -13.779307 -0.458278 39.444314 20.000788 9.024187 46.211339 11.776542 6.089535 -21.535908 13.974095 -38.340273 6.329836 11.776139 -21.861929 
0.691650 0.917457 0.765703 77.715769 -1.674679 79.028094 4.583328 -3.411196 -49.673368 -7.511775 3.827056 82.683095 10.655670 6.119433 -23.913006 0.000000 -0.000000 0.000000 -10.778522 -1.448611 -47.570346 5.226947 -2.227539 81.273274 -1.375004 -3.784990 -24.729100 0.000000 -0.000000 0.000000 -0.768159 -0.549720 39.019515 1.219403 -4.599492 -2.552726 -0.864473 -2.068339 -1.608047 -0.843982 5.595703 -23.351758 3.740190 -0.381141 -15.460757 -37.060869 -32.366790 6.198318 -23.911737 -20.273553 4.347451 13.005070 -27.354999 -11.922387 -0.515208 -15.997192 -3.821868 36.817508 33.701286 9.372833 37.602184 30.258552 5.809791 -21.759499 18.887976 -40.177509 0.876229 14.014825 -23.086075 
0.679528 0.928446 0.782307 75.709211 -1.507306 74.748144 3.777082 -2.407019 -43.891725 -7.698330 2.279762 80.236255 8.941862 6.327723 -20.696250 0.000000 -0.000000 0.000000 -9.128505 -1.752223 -42.912179 6.104497 -0.214350 78.709877 -1.293064 -3.409268 -21.919550 0.000000 -0.000000 0.000000 -0.745220 0.372262 36.670763 1.182718 -5.111571 -1.595039 0.576468 -0.765285 -4.919068 -1.303745 5.669840 -29.224453 4.355934 -1.352948 -16.829164 -23.751087 -44.443030 -0.397649 -12.870700 -27.280818 -3.042158 18.907655 -34.788722 -23.120564 13.391895 -19.172849 -5.768397 24.153401 47.302918 4.284806 25.579317 42.549651 -2.605431 -25.286526 23.587528 -48.086612 -11.203886 15.880504 -29.219113 
